<?xml version="1.0" encoding="utf-8"?>
<!DOCTYPE svg PUBLIC "-//W3C//DTD SVG 1.1//EN" "http://www.w3.org/Graphics/SVG/1.1/DTD/svg11.dtd">
<svg version="1.1" xmlns="http://www.w3.org/2000/svg" viewBox="0 0 168.5 183.8">
<g transform="translate(-329 -504.9)">
	<path fill="#337A4B" d="M450.6,529.8c-14.7-7.7-31.7-10.9-48.6-8.7c-0.6,0.1-1.2,0.1-1.8,0.3c-0.8,0.1-1.6,0.3-2.4,0.4
		c-6,1.1-12,2.8-17.8,5.3c-0.1,0.1-0.2,0.1-0.3,0.1c-1.9-4.9-6.3-9.5-12-12l9.3,13.3c-4.2,2-8.2,4.3-11.8,6.8
		c-1,0.7-1.9,1.4-2.9,2.1c-0.8,0.6-1.6,1.2-2.3,1.8c-13,10.6-22.2,24.7-26.8,40.4c6-1.1,12-2.8,17.8-5.3
		c5.5-2.4,10.6-5.2,15.3-8.6c2.4,7.5,5.9,14.6,10.3,21c7.8-7.5,14.3-16.5,18.7-26.6c10.3,3,20.9,3.9,31.4,2.9
		c-1.8-6.8-4.6-13.5-8.2-19.7c5.9-1.1,11.7-2.8,17.4-5.3C441.2,535.7,446,532.9,450.6,529.8z"/>
	<path fill="#337A4B" d="M379.7,536.1c-3.6,0-7-2.2-8.4-5.7c-1.1-2.8-4-5.7-7.4-7.2c-4.5-2-6.5-7.4-4.4-11.8
		c2-4.5,7.4-6.5,11.8-4.4c7.6,3.5,13.8,9.8,16.6,17c1.8,4.6-0.5,9.8-5.1,11.6C381.8,535.9,380.7,536.1,379.7,536.1z"/>
	<path fill="#C43339" d="M413.3,688.7c-18.2,0-36.1-5.9-51-17.2c-11.4-8.7-20.5-20.4-26.1-33.6c-4.1-9.7-6.4-19.9-6.7-30.3
		c-0.1-2.2-0.1-4.4,0.1-6.7c0.3-4.9,4.5-8.7,9.4-8.5c4.9,0.3,8.7,4.5,8.5,9.4c-0.1,1.8-0.1,3.5-0.1,5.2c0.3,8.2,2,16.2,5.3,23.9
		c4.5,10.4,11.5,19.5,20.5,26.4c18.8,14.4,44.1,17.6,65.9,8.3c22.6-9.7,37.9-30.8,39.8-55.4c0.9-10.5-0.9-21.2-5.1-31
		c-3.7-8.7-9.1-16.4-16-22.8l-1.1-0.9c-3.7-3.3-4-8.9-0.7-12.6c3.3-3.7,8.9-4,12.6-0.7l1.1,1l0.1,0.1
		c8.9,8.1,15.8,17.8,20.5,28.9c5.3,12.4,7.6,26,6.4,39.4c-2.5,31.2-21.9,58.1-50.6,70.4C435.5,686.5,424.3,688.7,413.3,688.7z"/>
	<path fill="#C1282D" d="M413.5,634.9c-1.8,0-3.6-0.5-5.1-1.6l-31.2-21.6c-4.1-2.8-5.1-8.4-2.2-12.4c2.8-4.1,8.4-5.1,12.4-2.2
		l23.9,16.5l27.6-39.9c2.8-4.1,8.4-5.1,12.4-2.2c4.1,2.8,5.1,8.4,2.2,12.4l-32.7,47.2c-1.4,2-3.4,3.3-5.8,3.7
		C414.6,634.8,414.1,634.9,413.5,634.9z"/>
</g>
</svg>
